<svg width="12" height="12" viewBox="0 0 12 12" fill="none" xmlns="http://www.w3.org/2000/svg">
<path d="M5.00085 0.724365H7.00641V1.06183H7.73068V0.677124C7.73077 0.303772 7.42719 0 7.05402 0H4.95325C4.58008 0 4.27649 0.303772 4.27649 0.677124V1.06183H5.00085V0.724365Z" fill="#333333"/>
<path d="M9.40337 3.93164H2.60393C2.41762 3.93164 2.27096 4.09058 2.28597 4.27634L2.85442 11.3054C2.8861 11.6978 3.2134 12 3.60662 12H8.4006C8.79381 12 9.12112 11.6978 9.15279 11.3053L9.72124 4.27634C9.73635 4.09058 9.58968 3.93164 9.40337 3.93164ZM4.25033 11.2503C4.24273 11.2507 4.23513 11.251 4.22762 11.251C4.03774 11.251 3.87835 11.1031 3.86654 10.9111L3.51031 5.14059C3.49804 4.94092 3.64992 4.76907 3.84951 4.75681C4.04845 4.74472 4.22103 4.89624 4.2333 5.09601L4.58944 10.8665C4.6018 11.0662 4.44991 11.2379 4.25033 11.2503ZM6.36986 10.8888C6.36986 11.0888 6.20772 11.2509 6.00768 11.2509C5.80764 11.2509 5.6455 11.0888 5.6455 10.8888V5.11826C5.6455 4.91821 5.80764 4.75607 6.00768 4.75607C6.20763 4.75607 6.36986 4.91821 6.36986 5.11826V10.8888ZM8.497 5.13959L8.15688 10.9101C8.14562 11.1025 7.98595 11.2509 7.79571 11.2509C7.78856 11.2509 7.78133 11.2507 7.7741 11.2504C7.57442 11.2386 7.42208 11.0672 7.43389 10.8675L7.77392 5.09692C7.78563 4.89725 7.95647 4.7449 8.1567 4.75671C8.35637 4.76843 8.50872 4.93991 8.497 5.13959Z" fill="#333333"/>
<path d="M10.6558 2.81396L10.418 2.10095C10.3552 1.91299 10.1793 1.78619 9.98107 1.78619H2.02614C1.82802 1.78619 1.65197 1.91299 1.58934 2.10095L1.35149 2.81396C1.30562 2.95148 1.36531 3.09174 1.47673 3.16168C1.52214 3.19016 1.57588 3.20728 1.63494 3.20728H10.3724C10.4314 3.20728 10.4852 3.19016 10.5306 3.16159C10.642 3.09164 10.7017 2.95139 10.6558 2.81396Z" fill="#333333"/>
</svg>
