<svg width="10" height="10" viewBox="0 0 10 10" fill="none" xmlns="http://www.w3.org/2000/svg">
<g clip-path="url(#clip0)">
<path d="M7.91664 5.01923C7.68623 5.01923 7.5 5.20592 7.5 5.43587V8.76923C7.5 8.99879 7.31331 9.18587 7.08336 9.18587H1.25C1.01997 9.18587 0.833359 8.99879 0.833359 8.76923V2.93587C0.833359 2.7063 1.01997 2.51923 1.25 2.51923H4.58336C4.81377 2.51923 5 2.33253 5 2.10258C5 1.87256 4.81377 1.68587 4.58336 1.68587H1.25C0.560837 1.68587 0 2.2467 0 2.93587V8.76923C0 9.45839 0.560837 10.0192 1.25 10.0192H7.08336C7.77252 10.0192 8.33336 9.45839 8.33336 8.76923V5.43587C8.33336 5.20546 8.14705 5.01923 7.91664 5.01923Z" fill="black"/>
<path d="M3.9066 4.63966C3.87745 4.66881 3.85785 4.70589 3.84953 4.74586L3.55496 6.21925C3.54123 6.28754 3.56289 6.35796 3.61203 6.40755C3.65162 6.44714 3.70495 6.46835 3.75958 6.46835C3.77285 6.46835 3.78666 6.46713 3.8004 6.46423L5.27333 6.16966C5.31414 6.16127 5.35122 6.14174 5.37999 6.11252L8.67665 2.81586L7.20372 1.343L3.9066 4.63966Z" fill="black"/>
<path d="M9.69495 0.324245C9.28876 -0.0820198 8.6279 -0.0820198 8.22202 0.324245L7.64539 0.900875L9.11832 2.37381L9.69495 1.7971C9.89163 1.60087 9.99997 1.33918 9.99997 1.06086C9.99997 0.782543 9.89163 0.520855 9.69495 0.324245Z" fill="black"/>
</g>
<defs>
<clipPath id="clip0">
<rect width="10" height="10" fill="white"/>
</clipPath>
</defs>
</svg>
