<svg viewBox="0 0 18 14" fill="none" xmlns="http://www.w3.org/2000/svg">
<path d="M0.375855 1.14985C2.84628 3.25932 7.18112 6.97053 8.45518 8.12769C8.62622 8.28387 8.80966 8.36327 9.0001 8.36327C9.19016 8.36327 9.37329 8.28462 9.54394 8.12918C10.8191 6.97089 15.1539 3.25932 17.6244 1.14985C17.7782 1.01877 17.8016 0.788363 17.6771 0.628108C17.3893 0.257796 16.9601 0.0454693 16.5001 0.0454693H1.50012C1.04017 0.0454693 0.610945 0.257796 0.323121 0.628144C0.198597 0.788363 0.222046 1.01877 0.375855 1.14985Z" fill="#CAE2FF"/>
<path d="M17.7825 2.29306C17.6496 2.23067 17.4932 2.25244 17.3826 2.34772C14.6429 4.68941 11.1464 7.69097 10.0463 8.69046C9.4288 9.25244 8.57187 9.25244 7.95298 8.68972C6.78038 7.62447 2.85384 4.25887 0.617414 2.34768C0.506074 2.2524 0.349348 2.23138 0.217512 2.29303C0.0849726 2.35509 0 2.48876 0 2.63608V12.1447C0 12.9788 0.672715 13.6571 1.50001 13.6571H16.5C17.3273 13.6571 18 12.9788 18 12.1447V2.63608C18 2.48876 17.915 2.35474 17.7825 2.29306Z" fill="#CAE2FF"/>
</svg>
