<svg width="18" height="16" viewBox="0 0 18 16" fill="none" xmlns="http://www.w3.org/2000/svg">
<path d="M8.86279 5.14926L11.4395 7.72594L11.4517 7.59097C11.4517 6.23718 10.3516 5.13699 8.99776 5.13699L8.86279 5.14926Z" fill="#CAE2FF"/>
<path d="M8.99793 3.50106C11.2556 3.50106 13.0879 5.33339 13.0879 7.59106C13.0879 8.11867 12.9816 8.62174 12.7975 9.08389L15.1902 11.4765C16.4253 10.4459 17.3987 9.11253 18 7.59106C16.5808 4.00007 13.092 1.45608 8.99797 1.45608C7.85277 1.45608 6.75668 1.66057 5.73828 2.02867L7.50514 3.79144C7.96726 3.61149 8.47032 3.50106 8.99793 3.50106Z" fill="#CAE2FF"/>
<path d="M0.817983 1.27198L2.68301 3.13701L3.05521 3.50921C1.70552 4.56443 0.638037 5.96731 0 7.591C1.41515 11.182 4.90798 13.726 8.99797 13.726C10.2659 13.726 11.4765 13.4806 12.5849 13.0348L12.9326 13.3824L15.317 15.771L16.36 14.7321L1.86093 0.229034L0.817983 1.27198ZM5.34153 5.79142L6.60533 7.05523C6.56852 7.23111 6.54398 7.40695 6.54398 7.591C6.54398 8.9448 7.64417 10.045 8.99797 10.045C9.18202 10.045 9.3579 10.0205 9.52968 9.98364L10.7935 11.2474C10.2495 11.5174 9.64421 11.681 8.99797 11.681C6.7403 11.681 4.90798 9.84867 4.90798 7.591C4.90798 6.9448 5.07159 6.33947 5.34153 5.79142Z" fill="#CAE2FF"/>
</svg>
