<svg width="10" height="10" viewBox="0 0 10 10" fill="none" xmlns="http://www.w3.org/2000/svg">
<path d="M4.92383 3.41627L6.35532 4.84776L6.36214 4.77278C6.36214 4.02067 5.75092 3.40945 4.99881 3.40945L4.92383 3.41627Z" fill="#333333"/>
<path d="M4.99878 2.50057C6.25304 2.50057 7.27099 3.51853 7.27099 4.77279C7.27099 5.06591 7.21192 5.34539 7.10967 5.60214L8.43891 6.93139C9.12511 6.35879 9.6659 5.61806 9.99991 4.77279C9.21146 2.7778 7.27327 1.36447 4.9988 1.36447C4.36258 1.36447 3.75364 1.47808 3.18787 1.68257L4.16946 2.66189C4.42619 2.56192 4.70567 2.50057 4.99878 2.50057Z" fill="#333333"/>
<path d="M0.454435 1.26221L1.49056 2.29834L1.69734 2.50512C0.947512 3.09135 0.354465 3.87073 0 4.77278C0.786192 6.76778 2.72665 8.1811 4.99887 8.1811C5.70326 8.1811 6.37583 8.04477 6.99161 7.79709L7.18475 7.99024L8.50946 9.3172L9.08887 8.74007L1.03385 0.6828L0.454435 1.26221ZM2.96751 3.77302L3.66963 4.47513C3.64918 4.57284 3.63554 4.67053 3.63554 4.77278C3.63554 5.52489 4.24676 6.13611 4.99887 6.13611C5.10112 6.13611 5.19883 6.12248 5.29427 6.10203L5.99638 6.80414C5.69417 6.95411 5.35789 7.045 4.99887 7.045C3.74461 7.045 2.72665 6.02705 2.72665 4.77278C2.72665 4.41378 2.81755 4.07749 2.96751 3.77302Z" fill="#333333"/>
</svg>
