<svg width="8" height="12" viewBox="0 0 8 12" fill="none" xmlns="http://www.w3.org/2000/svg">
<path d="M2.76894 6.00254L7.258 1.51317C7.38161 1.38985 7.44961 1.22498 7.44961 1.04917C7.44961 0.873268 7.38161 0.708488 7.258 0.584976L6.86465 0.191805C6.74123 0.0680976 6.57626 0 6.40046 0C6.22466 0 6.05989 0.0680976 5.93638 0.191805L0.591437 5.53678C0.46744 5.66068 0.399539 5.82624 0.400027 6.00224C0.399539 6.17902 0.467342 6.34439 0.591437 6.46839L5.9314 11.8082C6.05491 11.9319 6.21969 12 6.39558 12C6.57138 12 6.73616 11.9319 6.85977 11.8082L7.25303 11.415C7.50892 11.1591 7.50892 10.7425 7.25303 10.4867L2.76894 6.00254Z" fill="#333333"/>
</svg>
