<svg width="8" height="12" viewBox="0 0 8 12" fill="none" xmlns="http://www.w3.org/2000/svg">
<path d="M6.85787 5.53176L1.51819 0.191706C1.39469 0.068097 1.22983 0 1.05404 0C0.878256 0 0.713394 0.068097 0.589894 0.191706L0.196664 0.584873C-0.0592137 0.841066 -0.0592137 1.25745 0.196664 1.51326L4.68052 5.99751L0.191689 10.4867C0.0681885 10.6104 0 10.7751 0 10.9508C0 11.1267 0.0681885 11.2915 0.191689 11.4152L0.584919 11.8083C0.708517 11.9319 0.873281 12 1.04907 12C1.22486 12 1.38972 11.9319 1.51322 11.8083L6.85787 6.46336C6.98166 6.33936 7.04966 6.1738 7.04927 5.99781C7.04966 5.82112 6.98166 5.65566 6.85787 5.53176Z" fill="#333333"/>
</svg>
