<svg width="10" height="6" viewBox="0 0 10 6" fill="none" xmlns="http://www.w3.org/2000/svg">
<path d="M5 0.0195312C3.08939 0.0195312 1.35676 1.06484 0.0782449 2.7627C-0.0260816 2.9018 -0.0260816 3.09614 0.0782449 3.23524C1.35676 4.93514 3.08939 5.98045 5 5.98045C6.91061 5.98045 8.64324 4.93514 9.92175 3.23728C10.0261 3.09818 10.0261 2.90385 9.92175 2.76475C8.64324 1.06484 6.91061 0.0195312 5 0.0195312ZM5.13706 5.09879C3.86877 5.17857 2.82142 4.13326 2.9012 2.86294C2.96666 1.81558 3.81559 0.966651 4.86294 0.901191C6.13123 0.821412 7.17858 1.86672 7.0988 3.13705C7.0313 4.18236 6.18237 5.03129 5.13706 5.09879ZM5.07364 4.12917C4.39041 4.17213 3.82582 3.60959 3.87082 2.92635C3.90559 2.36176 4.36381 1.90559 4.9284 1.86877C5.61164 1.82581 6.17623 2.38835 6.13123 3.07159C6.09441 3.63822 5.63619 4.0944 5.07364 4.12917Z" fill="#333333"/>
</svg>
