<svg width="18" height="12" viewBox="0 0 18 12" fill="none" xmlns="http://www.w3.org/2000/svg">
<path d="M9 0.635162C5.56091 0.635162 2.44216 2.51672 0.140841 5.57287C-0.0469469 5.82325 -0.0469469 6.17305 0.140841 6.42343C2.44216 9.48326 5.56091 11.3648 9 11.3648C12.4391 11.3648 15.5578 9.48326 17.8592 6.42712C18.0469 6.17673 18.0469 5.82693 17.8592 5.57655C15.5578 2.51672 12.4391 0.635162 9 0.635162ZM9.2467 9.77783C6.96379 9.92143 5.07855 8.03988 5.22215 5.75329C5.33998 3.86805 6.86806 2.33998 8.7533 2.22215C11.0362 2.07855 12.9214 3.9601 12.7778 6.24669C12.6563 8.12825 11.1283 9.65632 9.2467 9.77783ZM9.13256 8.03251C7.90273 8.10984 6.88647 7.09726 6.96747 5.86744C7.03007 4.85117 7.85486 4.03006 8.87113 3.96379C10.101 3.88646 11.1172 4.89904 11.0362 6.12887C10.9699 7.14881 10.1451 7.96992 9.13256 8.03251Z" fill="#CAE2FF"/>
</svg>
