<svg viewBox="0 0 1154 288" fill="none" xmlns="http://www.w3.org/2000/svg">
<path d="M0 0.900024L32.0556 6.18346C64.1111 11.8656 128.222 21.8344 192.333 43.4666C256.444 64.7 320.556 96.6 384.667 91.3166C448.778 85.6344 512.889 43.7656 577 38.0835C641.111 32.8 705.222 64.7 769.333 107.267C833.444 149.434 897.556 203.266 961.667 218.917C1025.78 235.166 1089.89 213.234 1121.94 202.967L1154 192.3V288H1121.94C1089.89 288 1025.78 288 961.667 288C897.556 288 833.444 288 769.333 288C705.222 288 641.111 288 577 288C512.889 288 448.778 288 384.667 288C320.556 288 256.444 288 192.333 288C128.222 288 64.1111 288 32.0556 288H0V0.900024Z" fill="#A9CEFF"/>
</svg>
