<svg viewBox="0 0 1152 560" fill="none" xmlns="http://www.w3.org/2000/svg">
<path d="M1152 560L1113.6 548.406C1075.2 535.937 998.4 514.062 921.6 443.406C844.8 374.062 768 255.937 691.2 256.594C614.4 255.937 537.6 374.062 460.8 396.594C384 420 307.2 350 230.4 350C153.6 350 76.7999 420 38.4 455L0 490V-3.05176e-05H38.4C76.7999 -3.05176e-05 153.6 -3.05176e-05 230.4 -3.05176e-05C307.2 -3.05176e-05 384 -3.05176e-05 460.8 -3.05176e-05C537.6 -3.05176e-05 614.4 -3.05176e-05 691.2 -3.05176e-05C768 -3.05176e-05 844.8 -3.05176e-05 921.6 -3.05176e-05C998.4 -3.05176e-05 1075.2 -3.05176e-05 1113.6 -3.05176e-05H1152V560Z" fill="#154884"/>
</svg>
